<svg xmlns="http://www.w3.org/2000/svg" xmlns:xlink="http://www.w3.org/1999/xlink" viewBox="0,0,256,256" width="16px" height="16px"><g fill="#ffffff" fill-rule="nonzero" stroke="none" stroke-width="1" stroke-linecap="butt" stroke-linejoin="miter" stroke-miterlimit="10" stroke-dasharray="" stroke-dashoffset="0" font-family="none" font-weight="none" font-size="none" text-anchor="none" style="mix-blend-mode: normal"><g transform="scale(16,16)"><path d="M3.5,1c-1.37498,0 -2.5,1.12502 -2.5,2.5v8c0,1.37499 1.12502,2.5 2.5,2.5h8c1.37499,0 2.5,-1.12501 2.5,-2.5v-8c0,-1.37498 -1.12501,-2.5 -2.5,-2.5zM3.5,2h8c0.83502,0 1.5,0.66498 1.5,1.5v8c0,0.83502 -0.66498,1.5 -1.5,1.5h-1.5957v-4.0332h1.39648l0.20899,-1.60937h-1.60547v-1.02539c0,-0.466 0.12973,-0.7832 0.80273,-0.7832h0.85938v-1.43945c-0.149,-0.02 -0.65895,-0.0625 -1.25195,-0.0625c-1.238,0 -2.08398,0.749 -2.08398,2.125v1.18555l-1.23047,-0.00391v1.60938l1.23047,0.00391v4.0332h-4.73047c-0.83502,0 -1.5,-0.66498 -1.5,-1.5v-8c0,-0.83502 0.66498,-1.5 1.5,-1.5z"></path></g></g></svg>